<?xml version="1.0" encoding="iso-8859-1"?>
<!-- Generator: Adobe Illustrator 19.0.0, SVG Export Plug-In . SVG Version: 6.00 Build 0)  -->
<svg version="1.1" id="Capa_1" xmlns="http://www.w3.org/2000/svg" xmlns:xlink="http://www.w3.org/1999/xlink" x="0px" y="0px"
	 viewBox="0 0 512 512" style="enable-background:new 0 0 512 512;" xml:space="preserve">
<polygon style="fill:#F2F2F2;" points="512,511.867 0,511.867 89.6,328.4 422.4,328.4 "/>
<polygon style="fill:#4CDBC4;" points="41.6,488.4 105.6,339.067 406.4,339.067 470.4,488.4 "/>
<g>
	<polygon style="fill:#54C0EB;" points="202.667,412.667 194.133,488.4 470.4,488.4 462.933,473.467 	"/>
	<polygon style="fill:#54C0EB;" points="193.067,400.933 202.667,339.067 105.6,339.067 90.667,375.333 	"/>
</g>
<g>
	<polygon style="fill:#FFFFFF;" points="160,488.4 210.133,488.4 224,339.067 188.8,339.067 	"/>
	<polygon style="fill:#FFFFFF;" points="93.867,366.8 83.2,391.333 445.867,488.4 470.4,488.4 457.6,458.533 	"/>
</g>
<path style="fill:#FF7058;" d="M373.333,48.933c-65.067-65.067-170.667-65.067-235.733,0s-65.067,170.667,0,235.733L254.933,402
	l117.333-117.333C438.4,219.6,438.4,114,373.333,48.933z"/>
<path style="fill:#FFFFFF;" d="M167.467,166.267c0-49.067,39.467-88.533,88.533-88.533s88.533,39.467,88.533,88.533
	S305.067,254.8,256,254.8C206.933,254.8,167.467,215.333,167.467,166.267z"/>
<g>
</g>
<g>
</g>
<g>
</g>
<g>
</g>
<g>
</g>
<g>
</g>
<g>
</g>
<g>
</g>
<g>
</g>
<g>
</g>
<g>
</g>
<g>
</g>
<g>
</g>
<g>
</g>
<g>
</g>
</svg>
