<svg xmlns="http://www.w3.org/2000/svg" viewBox="0 0 22 22"><defs id="defs3051"><style id="current-color-scheme">.ColorScheme-Text{color:#4d4d4d}</style></defs><path id="path4196" fill="currentColor" d="M11 4a6 6 0 0 0-6 6 6 6 0 0 0 .004.13A4 4 0 0 0 2 14a4 4 0 0 0 4 4h9a5 5 0 0 0 5-5 5 5 0 0 0-3.242-4.676A6 6 0 0 0 11 4zm0 1a5 5 0 0 1 4.92 4.11A4 4 0 0 1 19 13a4 4 0 0 1-4 4H6a3 3 0 0 1-3-3 3 3 0 0 1 3-3 3 3 0 0 1 .107.006A5 5 0 0 1 6 10a5 5 0 0 1 5-5z" class="ColorScheme-Text"/><path id="path4306" fill="#bdc3c7" d="M21 14.5a4.5 4.5 0 0 1-4.5 4.5 4.5 4.5 0 0 1-4.5-4.5 4.5 4.5 0 0 1 4.5-4.5 4.5 4.5 0 0 1 4.5 4.5z"/><path id="rect4521" fill="#fff" d="M14 14v1h1v-1h-1zm2 0v1h1v-1h-1zm2 0v1h1v-1h-1z" stroke-linecap="round"/></svg>