<?xml version="1.0" encoding="UTF-8" standalone="no"?>
<!-- Created with Inkscape (http://www.inkscape.org/) -->

<svg
   xmlns:dc="http://purl.org/dc/elements/1.1/"
   xmlns:cc="http://creativecommons.org/ns#"
   xmlns:rdf="http://www.w3.org/1999/02/22-rdf-syntax-ns#"
   xmlns:svg="http://www.w3.org/2000/svg"
   xmlns="http://www.w3.org/2000/svg"
   version="1.1"
   width="15"
   height="15"
   viewBox="0 0 15 15"
   id="svg17805"
   xml:space="preserve"><metadata
   id="metadata9"><rdf:RDF><cc:Work
       rdf:about=""><dc:format>image/svg+xml</dc:format><dc:type
         rdf:resource="http://purl.org/dc/dcmitype/StillImage" /><dc:title></dc:title></cc:Work></rdf:RDF></metadata><defs
   id="defs7" />
<path
   d="m 7.5,0.125 c -4.059,0 -7.375,3.316 -7.375,7.375 0,4.059 3.316,7.375 7.375,7.375 4.059,0 7.375,-3.316 7.375,-7.375 0,-4.059 -3.316,-7.375 -7.375,-7.375 z m 0,1.768 c 3.104,0 5.607,2.504 5.607,5.607 0,3.103 -2.504,5.607 -5.607,5.607 -3.103,0 -5.607,-2.503 -5.607,-5.607 0,-3.104 2.503,-5.607 5.607,-5.607 z"
   id="path4660-7-2-3-3"
   style="fill:#565656" />
<path
   d="m 6.708,2.991 v 4.552 0.764 0.446 h 3.428 V 7.543 H 7.918 V 2.991 h -1.21 z"
   id="rect4662-1-2-3-46"
   style="fill:#565656" />
</svg>