<svg xmlns="http://www.w3.org/2000/svg" viewBox="0 0 512 512"><path fill="#f2f2f2" d="M512 511.867H0L89.6 328.4h332.8z"/><path fill="#4cdbc4" d="M41.6 488.4l64-149.333h300.8l64 149.333z"/><path d="M202.667 412.667l-8.534 75.733H470.4l-7.467-14.933zm-9.6-11.734l9.6-61.866H105.6l-14.933 36.266z" fill="#54c0eb"/><g fill="#fff"><path d="M160 488.4h50.133L224 339.067h-35.2z"/><path d="M93.867 366.8L83.2 391.333 445.867 488.4H470.4l-12.8-29.867z"/></g><path d="M373.333 48.933c-65.067-65.067-170.667-65.067-235.733 0s-65.067 170.667 0 235.733L254.933 402l117.333-117.333C438.4 219.6 438.4 114 373.333 48.933z" fill="#ff7058"/><path d="M167.467 166.267c0-49.067 39.467-88.533 88.533-88.533s88.533 39.467 88.533 88.533S305.067 254.8 256 254.8s-88.533-39.467-88.533-88.533z" fill="#fff"/></svg>